<?xml version="1.0" encoding="utf-8"?>
<!-- Generator: Adobe Illustrator 24.2.3, SVG Export Plug-In . SVG Version: 6.00 Build 0)  -->
<svg version="1.1" id="Layer_1" xmlns="http://www.w3.org/2000/svg" xmlns:xlink="http://www.w3.org/1999/xlink" x="0px" y="0px"
	 viewBox="0 0 793.1 882.7" style="enable-background:new 0 0 793.1 882.7;" xml:space="preserve">
<style type="text/css">
	.st0{fill:#EEEEEE;}
</style>
<path class="st0" d="M152.6,667.8h-46.1c-5,0-9,4-9,9c0,5,4,9,9,9h46.1c5,0,9-4,9-9C161.7,671.9,157.6,667.8,152.6,667.8z"/>
<path class="st0" d="M152.6,690.9h-46.1c-7.8,0-14-6.3-14-14c0-7.8,6.3-14,14-14h46.1c7.8,0,14,6.3,14,14
	C166.7,684.6,160.4,690.9,152.6,690.9L152.6,690.9z M106.5,672.8c-2.2,0-4,1.8-4,4c0,2.2,1.8,4,4,4h46.1c2.2,0,4-1.8,4-4
	c0-2.2-1.8-4-4-4H106.5z"/>
<path class="st0" d="M244.9,667.8h-46.1c-5,0-9,4-9,9c0,5,4,9,9,9h46.1c5,0,9-4,9-9C253.9,671.9,249.9,667.8,244.9,667.8
	L244.9,667.8z"/>
<path class="st0" d="M244.9,690.9h-46.1c-7.8,0-14-6.3-14-14c0-7.8,6.3-14,14-14h46.1c7.8,0,14,6.3,14,14
	C258.9,684.6,252.6,690.9,244.9,690.9L244.9,690.9z M198.7,672.8c-2.2,0-4,1.8-4,4c0,2.2,1.8,4,4,4h46.1c2.2,0,4-1.8,4-4
	c0-2.2-1.8-4-4-4H198.7z"/>
<path class="st0" d="M521.6,667.8h-46.1c-5,0-9,4-9,9c0,5,4,9,9,9h46.1c5,0,9-4,9-9C530.7,671.9,526.6,667.8,521.6,667.8z"/>
<path class="st0" d="M521.6,690.9h-46.1c-7.8,0-14-6.3-14-14c0-7.8,6.3-14,14-14h46.1c7.8,0,14,6.3,14,14
	C535.7,684.6,529.4,690.9,521.6,690.9z M475.5,672.8c-2.2,0-4,1.8-4,4c0,2.2,1.8,4,4,4h46.1c2.2,0,4-1.8,4-4c0-2.2-1.8-4-4-4H475.5z
	"/>
<path class="st0" d="M291,685.9h46.1c5,0,9-4,9-9c0-5-4-9-9-9H291c-5,0-9,4-9,9C282,681.9,286,685.9,291,685.9z"/>
<path class="st0" d="M337.1,690.9H291c-7.8,0-14-6.3-14-14c0-7.8,6.3-14,14-14h46.1c7.8,0,14,6.3,14,14
	C351.2,684.6,344.9,690.9,337.1,690.9L337.1,690.9z M291,672.8c-2.2,0-4,1.8-4,4c0,2.2,1.8,4,4,4h46.1c2.2,0,4-1.8,4-4
	c0-2.2-1.8-4-4-4H291z"/>
<path class="st0" d="M706.1,667.8H660c-5,0-9,4-9,9c0,5,4,9,9,9h46.1c5,0,9-4,9-9C715.2,671.9,711.1,667.8,706.1,667.8L706.1,667.8z
	"/>
<path class="st0" d="M706.1,690.9H660c-7.8,0-14-6.3-14-14c0-7.8,6.3-14,14-14h46.1c7.8,0,14,6.3,14,14
	C720.2,684.6,713.9,690.9,706.1,690.9L706.1,690.9z M660,672.8c-2.2,0-4,1.8-4,4c0,2.2,1.8,4,4,4h46.1c2.2,0,4-1.8,4-4
	c0-2.2-1.8-4-4-4H660z"/>
<path class="st0" d="M613.9,667.8h-46.1c-5,0-9,4-9,9c0,5,4,9,9,9h46.1c5,0,9-4,9-9C622.9,671.9,618.9,667.8,613.9,667.8
	L613.9,667.8z"/>
<path class="st0" d="M613.9,690.9h-46.1c-7.8,0-14-6.3-14-14c0-7.8,6.3-14,14-14h46.1c7.8,0,14,6.3,14,14
	C627.9,684.6,621.6,690.9,613.9,690.9z M567.7,672.8c-2.2,0-4,1.8-4,4c0,2.2,1.8,4,4,4h46.1c2.2,0,4-1.8,4-4c0-2.2-1.8-4-4-4H567.7z
	"/>
<path class="st0" d="M528.9,172.1c11.7,2.5,23.2,5.8,34.5,9.7c0.9,0.3,1.8,0.5,2.7,0.5c4.5,0.1,8.3-3.6,8.3-8.1
	c0-3.6-2.2-6.7-5.6-7.9c-11.9-4.1-24.1-7.6-36.5-10.2c-4.4-0.9-8.8,1.9-9.8,6.2C521.7,166.7,524.5,171.1,528.9,172.1
	C528.9,172.1,528.9,172.1,528.9,172.1z"/>
<path class="st0" d="M566.2,187.3c-1.5,0-3-0.3-4.4-0.8c-11.1-3.9-22.4-7.1-33.9-9.6l0,0c-7.1-1.6-11.6-8.7-9.9-15.8
	c1.6-7,8.5-11.5,15.6-10c12.6,2.7,25,6.2,37.2,10.4c6.9,2.4,10.5,10,8,16.9C576.8,183.8,571.8,187.3,566.2,187.3L566.2,187.3z
	 M530,167.3c11.9,2.6,23.6,5.9,35.1,9.9c1.7,0.6,3.5-0.3,4.1-2c0.6-1.7-0.3-3.5-2-4.1c0,0,0,0,0,0c-11.7-4.1-23.7-7.4-35.8-10
	c-1.7-0.3-3.4,0.7-3.8,2.5C527.2,165.2,528.3,166.9,530,167.3z"/>
<path class="st0" d="M238,178.7c0.8,0,1.6-0.1,2.4-0.4c11.5-3.4,23.2-6.3,35-8.5c4.5-0.9,7.4-5.2,6.5-9.6c-0.9-4.5-5.2-7.4-9.6-6.5
	c-12.4,2.4-24.6,5.3-36.7,8.9c-4.3,1.3-6.8,5.9-5.5,10.2C231.2,176.3,234.4,178.7,238,178.7z"/>
<path class="st0" d="M238,183.7c-7.3,0-13.2-5.9-13.2-13.2c0-5.8,3.8-11,9.4-12.7c11.2-3.4,23.7-6.4,37.2-9
	c7.1-1.4,14.1,3.2,15.5,10.4c0,0,0,0,0,0.1c1.4,7.2-3.3,14.1-10.5,15.5c-11.7,2.2-23.2,5-34.6,8.4
	C240.6,183.5,239.3,183.7,238,183.7z M273.9,158.5c-0.2,0-0.4,0-0.6,0.1c-13.2,2.6-25.3,5.5-36.2,8.8c-1.7,0.5-2.7,2.3-2.2,4
	c0.4,1.4,1.7,2.3,3.1,2.3c0.3,0,0.6,0,0.9-0.1c11.7-3.5,23.5-6.4,35.5-8.6c1.8-0.3,2.9-2,2.6-3.8c-0.2-0.8-0.7-1.6-1.4-2.1
	C275.1,158.7,274.5,158.5,273.9,158.5L273.9,158.5z"/>
<path class="st0" d="M787.3,673.5c0-0.1,0-0.2-0.1-0.3s0-0.2-0.1-0.3L549.6,261.7c42-11.5,70.5-28.5,70.6-50.5c0,0,0,0,0-0.1
	c0-9.8-5.4-18.9-16.1-27.1c-3.6-2.8-8.8-2.1-11.5,1.5c-2.8,3.6-2.1,8.8,1.5,11.5l0,0c4.4,3.4,9.7,8.6,9.7,14l0,0
	c0,11.5-22.5,25.4-62.6,35.9l-46.9-81.2h0.1c4.5,0,8.2-3.7,8.2-8.3c0-4.1-3-7.5-7-8.1c-3.8-0.5-7.7-1-11.6-1.5L403.8,9.2
	c-2.3-4-7.4-5.4-11.5-3.1c-1.3,0.7-2.3,1.8-3.1,3.1L309.2,148c-4.4,0.6-7.5,4.7-7,9.1c0.1,0.7,0.3,1.4,0.6,2L252,247
	c-40.1-10.5-62.6-24.4-62.6-35.9l0,0c0-6.1,6.6-13,18.5-19.7c3.9-2.3,5.3-7.3,3-11.2c-2.2-3.8-7.1-5.2-11-3.1
	c-17.8,9.9-26.9,21.4-26.9,34c0,0,0,0,0,0.1c0,22.1,28.6,39.1,70.6,50.6L6.1,672.9c-0.1,0.1,0,0.2-0.1,0.3s0,0.2-0.1,0.3
	c-2,4.1-0.4,9,3.7,11.1l383.2,192.2c2.4,1.2,5.2,1.2,7.5,0l383.2-192.2C787.6,682.6,789.3,677.6,787.3,673.5z M416.3,66.8l45.5,78.8
	c-1.1-0.1-2.2-0.2-3.4-0.3c-4.5-0.5-8.6,2.8-9.1,7.3c-0.5,4.5,2.8,8.6,7.3,9.1c0.1,0,0.3,0,0.4,0c5,0.4,9.9,0.9,14.8,1.4l35.2,61
	c7.7,13.4-0.4,30.4-15.7,32.6c-19.1,2.7-40.3,4.6-63.5,5.5c-11.8,0.5-21.7-8.7-22.2-20.5c0-0.3,0-0.5,0-0.8v-81.5
	c5,0.1,10,0.1,15,0.3h0.3c4.5,0.1,8.3-3.6,8.4-8.1s-3.6-8.3-8.1-8.4c-5.1-0.2-10.3-0.2-15.5-0.3V69.7c0.1-3.1,2.7-5.6,5.8-5.5
	C413.5,64.2,415.2,65.2,416.3,66.8L416.3,66.8z M387.6,667.8h-4.3c-5,0-9,4-9,9c0,5,4,9,9,9h4.3v116.4c0,17.6-14.3,31.9-31.9,31.9
	c-5,0-9.9-1.2-14.3-3.4l-287.2-144c-0.5-0.2-0.9-0.6-1.3-0.9h7.6c5,0,9-4,9-9c0-5-4-9-9-9l0,0H39.2c-1.8-7.2-0.7-14.8,2.9-21.2
	l219.7-380.5c37.1,8.1,81.7,12.6,125.7,13.1L387.6,667.8z M364,262.2c-21.5-0.8-43-2.8-64.3-5.8c-11.2-1.6-18.9-12-17.2-23.1
	c0.4-2.6,1.2-5,2.5-7.3l36.3-62.8c8.6-0.9,17.4-1.7,26.3-2.3c4.5-0.3,8-4.2,7.7-8.7c-0.3-4.5-4.2-8-8.7-7.7
	c-5.1,0.3-10.1,0.8-15.1,1.2l34.1-59.1c6-10.5,22-6.1,22,5.9v50.4c-1.2,0-2.5,0-3.7,0c-4.5,0.1-8.2,3.8-8.1,8.4
	c0.2,4.5,3.9,8,8.4,8.1c1.1,0,2.3,0,3.5,0v80.2c0.1,12.4-10,22.5-22.4,22.6C364.7,262.2,364.4,262.2,364,262.2z M715.1,698.8
	L425.8,843.8c-6.9,3.4-15.2,0.7-18.7-6.2c-1-1.9-1.5-4.1-1.5-6.2V694.3c0-4.6,3.8-8.4,8.4-8.4h15.3c5,0,9-4,9-9c0-5-4-9-9-9h-15.4
	c-4.6,0-8.3-3.7-8.3-8.3V279.3c44.1-0.5,88.7-5,125.7-13.1l206.3,357.3c14.9,25.8,6.1,58.9-19.8,73.8
	C717,697.8,716,698.3,715.1,698.8z"/>
<path class="st0" d="M396.6,882.7c-2.1,0-4.1-0.5-6-1.4L7.3,689.1c-6.4-3.2-9.1-10.9-6.1-17.4l0,0c0.1-0.4,0.3-0.9,0.5-1.3
	L236,264.8c-44.6-13.2-68.1-31.7-68.1-53.6v-0.8c0.4-14.3,10.3-26.9,29.5-37.6c6.3-3.6,14.4-1.4,18,4.9c3.6,6.3,1.4,14.4-4.9,18
	c-0.1,0-0.2,0.1-0.3,0.1c-11.7,6.5-15.9,12.2-15.9,15.3v0.2c0.3,6.2,15.1,18.9,55.2,29.9l47.8-82.7c-0.1-0.3-0.1-0.6-0.1-0.8
	c-0.7-6.1,2.9-11.9,8.7-14L385,6.7c3.7-6.4,11.9-8.6,18.3-4.9c2,1.2,3.7,2.9,4.9,4.9l78.9,136.6c3,0.4,6.2,0.7,9.2,1.2
	c7.2,1,12.3,7.7,11.2,14.9c-0.5,3.8-2.7,7.1-5.8,9.2l41.9,72.6c40.4-11.1,55.2-24,55.2-30.1v-0.2c-0.1-2.6-3-6.2-7.7-9.9
	c-5.6-4.6-6.4-13-1.8-18.6c4.4-5.4,12.2-6.4,17.9-2.4c12,9.2,18.1,19.7,18.1,31.1v0.9c-0.6,21.6-24.1,39.7-68,52.8l234.2,405.7
	c0.2,0.4,0.4,0.8,0.5,1.3l0,0c3,6.5,0.3,14.2-6.1,17.4L402.6,881.3C400.7,882.2,398.7,882.7,396.6,882.7z M10.6,675
	c0,0.1-0.1,0.3-0.1,0.4l-0.1,0.3c-0.8,1.6-0.2,3.6,1.4,4.5L395,872.4c0.9,0.5,2.1,0.5,3,0l383.3-192.2c1.6-0.8,2.3-2.8,1.4-4.5
	l-0.1-0.3c-0.1-0.1-0.1-0.3-0.2-0.4l0,0L542.1,258.6l6.2-1.7c43.1-11.8,66.8-28,66.9-45.7v-0.7c-0.2-7.9-5-15.5-14.2-22.5
	c-1.4-1.2-3.4-1-4.6,0.4s-1,3.4,0.4,4.6c0.1,0.1,0.2,0.1,0.3,0.2c7.7,5.9,11.7,12,11.7,18v0.8c-1.2,20.6-46.6,34.8-66.3,39.9l-3.7,1
	l-53.2-92.2l9.1,0.2c1.8-0.1,3.2-1.6,3.1-3.4c-0.1-1.6-1.3-2.8-2.8-3c-2.9-0.4-6-0.8-9-1.1l-4.9-0.6l-81.4-141
	c-0.9-1.6-3-2.2-4.6-1.3c-0.5,0.3-1,0.7-1.3,1.3l-81.3,140.8l-2.4,0.3c-1.7,0.2-2.9,1.8-2.8,3.5c0,0.1,0.1,0.4,0.2,0.5l1,2.5
	l-53.9,93.4l-3.7-1c-19.9-5.2-66.3-19.6-66.4-40.7v-0.8v-0.1c0.5-7.8,7.7-15.8,21-23.2c1.6-0.9,2.1-2.8,1.2-4.4
	c-0.9-1.6-2.8-2.1-4.4-1.2l0,0c-16.1,9-24.3,19-24.3,29.6v0.6c0.5,17.5,24.2,33.5,66.9,45.2l6.2,1.7L10.6,675z M493.8,170.8
	L493.8,170.8z M494.8,160.8L494.8,160.8z M419.5,850.3c-10.4,0-18.9-8.5-18.9-18.9V694.3c0-7.4,6-13.4,13.4-13.4h15.3
	c2.2,0,4-1.8,4-4c0-2.2-1.8-4-4-4h-15.4c-7.3,0-13.3-6-13.3-13.3V274.4l4.9-0.1c44.7-0.5,89-5.2,124.7-13l3.6-0.8L742,621
	c16.3,28.2,6.6,64.3-21.6,80.6c-1,0.6-2,1.1-3.1,1.6L428,848.3C425.4,849.6,422.5,850.3,419.5,850.3z M414,690.9
	c-1.9,0-3.4,1.5-3.4,3.4v137.1c0,4.9,4,8.9,8.9,8.9c1.4,0,2.8-0.3,4-0.9l289.3-145.1c24.2-12.1,34-41.5,21.9-65.7
	c-0.4-0.9-0.9-1.7-1.4-2.6L528.8,271.9c-34.4,7.2-76,11.6-118.2,12.4v375.3c0,1.8,1.5,3.3,3.3,3.3h15.4c7.8,0,14,6.3,14,14
	c0,7.8-6.3,14-14,14H414z M355.7,839.2c-5.8,0-11.4-1.4-16.6-4l-287.2-144c-0.5-0.3-0.9-0.5-1.4-0.9l-0.2-0.2l-16.2-9.3h26.3
	c2.2,0,4-1.8,4-4c0-2.2-1.8-4-4-4H35.3l-0.9-3.8c-2.1-8.4-0.9-17.3,3.5-24.9l221.5-383.6l3.6,0.8c35.7,7.9,80,12.5,124.7,13l4.9,0.1
	v398.4h-9.3c-2.2,0-4,1.8-4,4c0,2.2,1.8,4,4,4h9.3v121.4C392.5,822.6,376,839.1,355.7,839.2L355.7,839.2z M68.4,688.3l275.1,138
	c13.3,6.7,29.4,1.3,36.1-12c1.9-3.7,2.8-7.8,2.9-12V690.9c-7.7,0-14-6.3-14-14s6.3-14,14-14V284.2c-42.2-0.8-83.8-5.2-118.2-12.4
	L46.5,649.1c-2.4,4.1-3.4,8.9-3,13.7h16.9c7.7-0.1,14.1,6.1,14.1,13.9C74.5,681.3,72.3,685.7,68.4,688.3z M427,267.3
	c-14.5,0-26.3-11.8-26.3-26.3v-86.6l5.1,0.1c4.5,0,9.8,0.1,15,0.3h0.2c1.8-0.1,3.2-1.6,3.1-3.4c-0.1-1.6-1.4-3-3-3.1
	c-5.4-0.2-10.8-0.2-15.4-0.3l-5-0.1V69.7c-0.1-5.9,4.7-10.7,10.6-10.8c3.9,0,7.5,2,9.4,5.4l50.3,87.1l-9.6-0.8l-1.6-0.2l-1.6-0.2
	c-1.8-0.2-3.3,1.1-3.5,2.9c-0.2,1.8,1.1,3.3,2.9,3.5c5.2,0.4,10.5,1,14.9,1.4l2.5,0.3l36.5,63.2c4.5,7.8,4.8,17.3,0.9,25.3
	c-3.9,8-11.5,13.5-20.2,14.7c-20,2.8-41.5,4.7-64,5.6L427,267.3z M410.6,164.4v76.5c0,9,7.4,16.3,16.4,16.3c0.2,0,0.4,0,0.6,0
	c22.1-0.9,43.4-2.7,63-5.5c5.5-0.7,10.2-4.2,12.6-9.2c2.5-5.1,2.3-11-0.5-15.9l-34-58.8c-3.8-0.4-8-0.8-12.2-1.1
	c-7.3-0.6-12.7-7-12.1-14.3c0.4-5.2,3.8-9.7,8.8-11.4l-41.4-71.7c-0.1-0.3-0.4-0.5-0.7-0.3c0,0,0,0,0,0c-0.3,0-0.6,0.3-0.5,0.7
	c0,0,0,0,0,0V138c3.4,0,7,0.1,10.6,0.2c7.3,0.1,13.1,6.1,13,13.4c-0.1,7.3-6.1,13.1-13.4,13h-0.4
	C417.1,164.6,413.8,164.5,410.6,164.4z M365,267.2c-0.4,0-0.8,0-1.2,0c-21.7-0.9-43.3-2.8-64.8-5.8c-13.9-2-23.5-14.9-21.5-28.8
	c0.5-3.2,1.5-6.3,3.2-9.1l37.6-65l2.5-0.3c9.8-1,18.5-1.8,26.5-2.3c1.8-0.1,3.1-1.7,3-3.5c-0.1-1.8-1.7-3.1-3.5-3
	c-5.2,0.3-10.4,0.8-15,1.2l-9.6,0.8l38.9-67.4c4.6-8,14.9-10.8,23-6.1c5.2,3,8.4,8.6,8.4,14.6v55.4l-5,0.1h-3.7
	c-1.8,0-3.2,1.5-3.2,3.3c0.2,1.8,1.7,3.1,3.4,3.1h3.3l5.1-0.1v85.3C392.6,254.9,380.3,267.2,365,267.2
	C365,267.2,365,267.2,365,267.2z M324.4,167.9l-35,60.6c-4.3,7.4-1.8,16.8,5.6,21.1c1.7,1,3.6,1.6,5.5,1.9
	c19.9,2.9,41.4,4.8,63.8,5.7l0,0c9.7,0.5,17.8-7,18.3-16.7c0-0.3,0-0.6,0-0.9v-75.3c-6.6-0.8-11.6-6.3-11.8-12.9
	c-0.1-6.8,5-12.6,11.8-13.4V92.5c0-3.8-3-6.8-6.8-6.8c-2.4,0-4.7,1.3-5.9,3.4l-29.4,50.8c1.9-0.1,3.8-0.3,5.7-0.4
	c7.3-0.5,13.6,5,14,12.3c0.5,7.3-5,13.6-12.3,14l0,0C340.7,166.3,333,167,324.4,167.9L324.4,167.9z"/>
</svg>
