<svg id="Layer_1" data-name="Layer 1" xmlns="http://www.w3.org/2000/svg" viewBox="0 0 793.14 882.71"><defs><style>.cls-1{fill:#231f20;}</style></defs><path class="cls-1" d="M152.61,667.82H106.48a9,9,0,0,0,0,18.08h46.13a9,9,0,1,0,0-18.08Z"/><path class="cls-1" d="M152.61,690.9H106.48a14,14,0,0,1,0-28.08h46.13a14,14,0,1,1,0,28.08Zm-46.13-18.08a4,4,0,0,0,0,8.08h46.13a4,4,0,1,0,0-8.08Z"/><path class="cls-1" d="M244.86,667.82H198.74a9,9,0,1,0,0,18.08h46.12a9,9,0,1,0,0-18.08Z"/><path class="cls-1" d="M244.86,690.9H198.74a14,14,0,1,1,0-28.08h46.12a14,14,0,0,1,0,28.08Zm-46.12-18.08a4,4,0,1,0,0,8.08h46.12a4,4,0,1,0,0-8.08Z"/><path class="cls-1" d="M521.61,667.82H475.49a9,9,0,0,0,0,18.08h46.12a9,9,0,1,0,0-18.08Z"/><path class="cls-1" d="M521.61,690.9H475.49a14,14,0,0,1,0-28.08h46.12a14,14,0,1,1,0,28.08Zm-46.12-18.08a4,4,0,0,0,0,8.08h46.12a4,4,0,1,0,0-8.08Z"/><path class="cls-1" d="M291,685.9h46.12a9,9,0,0,0,0-18.08H291a9,9,0,1,0,0,18.08Z"/><path class="cls-1" d="M337.11,690.9H291a14,14,0,1,1,0-28.08h46.12a14,14,0,0,1,0,28.08ZM291,672.82a4,4,0,1,0,0,8.08h46.12a4,4,0,0,0,0-8.08Z"/><path class="cls-1" d="M706.11,667.82H660a9,9,0,0,0,0,18.08h46.12a9,9,0,1,0,0-18.08Z"/><path class="cls-1" d="M706.11,690.9H660a14,14,0,0,1,0-28.08h46.12a14,14,0,1,1,0,28.08ZM660,672.82a4,4,0,0,0,0,8.08h46.12a4,4,0,1,0,0-8.08Z"/><path class="cls-1" d="M613.86,667.82H567.74a9,9,0,0,0,0,18.08h46.12a9,9,0,1,0,0-18.08Z"/><path class="cls-1" d="M613.86,690.9H567.74a14,14,0,0,1,0-28.08h46.12a14,14,0,1,1,0,28.08Zm-46.12-18.08a4,4,0,0,0,0,8.08h46.12a4,4,0,1,0,0-8.08Z"/><path class="cls-1" d="M528.93,172.14a296.86,296.86,0,0,1,34.55,9.7,8,8,0,0,0,2.74.47,8.22,8.22,0,0,0,2.75-16,314.51,314.51,0,0,0-36.48-10.25,8.33,8.33,0,0,0-9.81,6.25A8.22,8.22,0,0,0,528.93,172.14Z"/><path class="cls-1" d="M566.22,187.31a13.31,13.31,0,0,1-4.43-.76A288.71,288.71,0,0,0,527.85,177h0a13.22,13.22,0,0,1,5.64-25.83,319.51,319.51,0,0,1,37.16,10.44,13.22,13.22,0,0,1-4.42,25.68ZM530,167.26a301.13,301.13,0,0,1,35.13,9.87,3.24,3.24,0,0,0,4.11-2,3.22,3.22,0,0,0-2-4.11A307.91,307.91,0,0,0,531.4,161a3.29,3.29,0,0,0-3.84,2.46A3.23,3.23,0,0,0,530,167.26Z"/><path class="cls-1" d="M238,178.7a8.5,8.5,0,0,0,2.37-.35,355.33,355.33,0,0,1,35.05-8.53,8.22,8.22,0,1,0-3.13-16.14,376.25,376.25,0,0,0-36.67,8.93A8.22,8.22,0,0,0,238,178.7Z"/><path class="cls-1" d="M238,183.7a13.22,13.22,0,0,1-3.83-25.88c11.18-3.37,23.68-6.42,37.16-9a13.19,13.19,0,0,1,15.5,10.46,13.25,13.25,0,0,1-10.45,15.5,351.81,351.81,0,0,0-34.56,8.4A13.15,13.15,0,0,1,238,183.7Zm35.88-25.18a3.34,3.34,0,0,0-.62.06c-13.17,2.57-25.34,5.54-36.19,8.81a3.22,3.22,0,0,0,.93,6.31,3.4,3.4,0,0,0,.94-.14,359.21,359.21,0,0,1,35.52-8.64,3.23,3.23,0,0,0,1.18-5.86A3.12,3.12,0,0,0,273.87,158.52Z"/><path class="cls-1" d="M787.28,673.54c0-.09,0-.18-.09-.27s-.05-.23-.11-.33L549.64,261.71c42-11.51,70.51-28.49,70.57-50.53,0,0,0,0,0-.05,0-9.75-5.42-18.86-16.14-27.08a8.22,8.22,0,0,0-10,13.06c4.43,3.39,9.7,8.56,9.7,14v0c0,11.5-22.46,25.39-62.61,35.9l-46.89-81.21h.13a8.23,8.23,0,0,0,1.15-16.37c-3.78-.53-7.69-1-11.57-1.46L403.84,9.2a8.39,8.39,0,0,0-14.54,0L309.18,148a8.22,8.22,0,0,0-7,9.11,7.83,7.83,0,0,0,.63,2L252,247c-40.14-10.51-62.6-24.38-62.62-35.89h0c0-6.06,6.55-13,18.46-19.68a8.22,8.22,0,0,0-8-14.36c-17.82,9.93-26.87,21.36-26.9,34a.43.43,0,0,0,0,.05c0,22.06,28.55,39.07,70.59,50.59L6.06,672.94c-.06.1,0,.23-.11.33s0,.18-.09.27a8.34,8.34,0,0,0,3.71,11.1L392.81,876.83a8.43,8.43,0,0,0,7.52,0L783.57,684.64A8.34,8.34,0,0,0,787.28,673.54Zm-371-606.69,45.5,78.8c-1.13-.1-2.23-.23-3.36-.33a8.23,8.23,0,1,0-1.35,16.4c5,.41,9.91.91,14.82,1.42l35.23,61c7.73,13.38-.42,30.44-15.72,32.57-19.08,2.66-40.33,4.58-63.53,5.51a21.38,21.38,0,0,1-22.22-21.31V159.37c5,.06,10.05.13,15,.29h.26a8.22,8.22,0,0,0,.26-16.44c-5.09-.16-10.28-.24-15.48-.29V69.69A5.7,5.7,0,0,1,416.24,66.85Zm-28.71,601h-4.29a9,9,0,1,0,0,18.08h4.29V802.29a31.88,31.88,0,0,1-46.18,28.5l-287.2-144c-.49-.25-.88-.6-1.35-.87h7.56a9,9,0,1,0,0-18.08H39.19a28.59,28.59,0,0,1,2.93-21.18L261.79,266.2c37.06,8.13,81.67,12.59,125.74,13.12ZM364,262.19a644.1,644.1,0,0,1-64.3-5.75A20.41,20.41,0,0,1,285,226l36.28-62.83c8.63-.91,17.39-1.72,26.32-2.31a8.21,8.21,0,1,0-1.08-16.39c-5.09.33-10.12.75-15.13,1.19l34.13-59.11c6-10.46,22-6.14,22,5.94v50.44c-1.24,0-2.5,0-3.74,0a8.22,8.22,0,0,0-8.08,8.35,8.47,8.47,0,0,0,8.35,8.09c1.15,0,2.32,0,3.47,0v80.25A22.5,22.5,0,0,1,364,262.19ZM715.08,698.75,425.77,843.85a13.92,13.92,0,0,1-20.16-12.44V694.33A8.44,8.44,0,0,1,414,685.9h15.32a9,9,0,1,0,0-18.08H413.92a8.31,8.31,0,0,1-8.31-8.3V279.32c44.07-.53,88.68-5,125.74-13.12L737.64,623.48A54,54,0,0,1,715.08,698.75Z"/><path class="cls-1" d="M396.57,882.71a13.37,13.37,0,0,1-6-1.42L7.33,689.1a13.24,13.24,0,0,1-6.14-17.37v0a5.62,5.62,0,0,1,.53-1.26L236,264.76c-44.56-13.22-68.06-31.71-68.06-53.64l0-.81c.37-14.27,10.28-26.92,29.46-37.6a13.22,13.22,0,1,1,12.86,23.1c-11.71,6.53-15.89,12.19-15.89,15.31v.17c.26,6.16,15.15,18.91,55.21,29.91l47.75-82.7a6.83,6.83,0,0,1-.14-.83,13.3,13.3,0,0,1,8.72-14L385,6.7a13.39,13.39,0,0,1,23.2,0l78.89,136.63c3,.37,6.16.74,9.19,1.17a13.21,13.21,0,0,1,5.41,24.12l41.91,72.58c40.41-11.1,55.2-24,55.2-30.08v-.19c-.11-2.56-3-6.22-7.73-9.85a13.23,13.23,0,0,1,16.07-21c12,9.23,18.12,19.68,18.11,31.07l0,.85c-.62,21.57-24.08,39.74-68,52.78L791.41,670.44a5.63,5.63,0,0,1,.53,1.26v0a13.24,13.24,0,0,1-6.14,17.37L402.57,881.29A13.27,13.27,0,0,1,396.57,882.71ZM10.65,675c0,.14-.09.27-.14.41l-.14.3a3.33,3.33,0,0,0,1.44,4.47L395.05,872.36a3.45,3.45,0,0,0,3,0L781.33,680.17a3.33,3.33,0,0,0,1.44-4.47l-.13-.3c-.06-.13-.1-.27-.15-.4v0L542.07,258.6l6.25-1.71c43.09-11.81,66.84-28,66.89-45.72v-.7C615,202.59,610.21,195,601,188a3.23,3.23,0,1,0-3.91,5.13c7.73,5.93,11.66,12,11.65,18l0,.84c-1.18,20.64-46.64,34.76-66.32,39.92l-3.69,1-53.25-92.21,9.08.2a3.22,3.22,0,0,0,.27-6.41c-2.93-.41-6-.78-9-1.14l-4.93-.6-81.39-141a3.39,3.39,0,0,0-5.88,0L312.29,152.57l-2.41.34a3.23,3.23,0,0,0-2.78,3.49c0,.11.13.35.2.53l1,2.53L254.4,252.83l-3.69-1c-19.93-5.22-66.31-19.64-66.35-40.72v-.75l0-.1c.47-7.8,7.71-15.81,21-23.21a3.22,3.22,0,1,0-3.14-5.63c-16.11,9-24.3,19-24.32,29.63v.62c.52,17.46,24.23,33.49,66.9,45.19l6.25,1.71L10.65,675Zm483.17-504.2h0Zm1-10h0ZM419.52,850.34a19,19,0,0,1-18.91-18.93V694.33A13.45,13.45,0,0,1,414,680.9h15.32a4,4,0,1,0,0-8.08H413.92a13.32,13.32,0,0,1-13.31-13.3V274.38l4.94-.06c44.7-.54,89-5.16,124.73-13l3.57-.78L742,621a59,59,0,0,1-24.65,82.24L428,848.32A19,19,0,0,1,419.52,850.34ZM414,690.9a3.44,3.44,0,0,0-3.43,3.43V831.41a8.92,8.92,0,0,0,12.92,8l289.31-145.1A49,49,0,0,0,733.31,626L528.84,271.85c-34.39,7.24-76,11.6-118.23,12.4V659.52a3.31,3.31,0,0,0,3.31,3.3h15.44a14,14,0,1,1,0,28.08ZM355.66,839.21a36.9,36.9,0,0,1-16.56-4l-287.19-144a10.65,10.65,0,0,1-1.39-.86l-.22-.15-16.25-9.34H60.36a4,4,0,1,0,0-8.08H35.26L34.33,669a33.64,33.64,0,0,1,3.46-24.86l221.5-383.61,3.57.78c35.74,7.85,80,12.47,124.73,13l4.94.06V672.82h-9.29a4,4,0,1,0,0,8.08h9.29V802.29a37,37,0,0,1-36.87,36.92ZM68.44,688.34l275.15,138a26.89,26.89,0,0,0,38.94-24V690.89a14,14,0,0,1,0-28V284.25c-42.2-.8-83.84-5.16-118.23-12.4L46.45,649.14a23.38,23.38,0,0,0-3,13.68H60.36a14,14,0,0,1,8.08,25.52ZM427,267.27a26.4,26.4,0,0,1-26.34-26.33V154.31l5.06.06c4.52,0,9.82.13,15,.29h.18a3.23,3.23,0,0,0,.1-6.45c-5.36-.16-10.78-.23-15.37-.28l-4.95-.06V69.7a10.69,10.69,0,0,1,20-5.35l50.31,87.12-9.58-.84-1.62-.16-1.63-.16a3.22,3.22,0,1,0-.61,6.42c5.23.43,10.45,1,14.93,1.44l2.53.27,36.51,63.23a27,27,0,0,1,.88,25.32,26.6,26.6,0,0,1-20.24,14.7c-20,2.79-41.55,4.66-64,5.56ZM410.61,164.44v76.5a16.37,16.37,0,0,0,17,16.31c22.14-.88,43.35-2.72,63-5.46a16.4,16.4,0,0,0,12.63-9.19,16.94,16.94,0,0,0-.55-15.93l-34-58.82c-3.8-.39-8-.81-12.17-1.15a13.24,13.24,0,0,1-12.1-14.26,13,13,0,0,1,8.8-11.39l-41.41-71.7a.58.58,0,0,0-.78-.33.6.6,0,0,0-.52.68V138c3.39,0,7,.12,10.63.23a13.22,13.22,0,0,1-.41,26.44h-.41C417.14,164.55,413.78,164.48,410.61,164.44ZM365,267.21c-.4,0-.8,0-1.2,0a650.51,650.51,0,0,1-64.8-5.8,25.4,25.4,0,0,1-18.32-37.89l37.56-65,2.53-.27c9.81-1,18.48-1.79,26.52-2.32a3.21,3.21,0,1,0-.5-6.41c-5.16.33-10.43.78-14.95,1.18l-9.57.83,38.93-67.42a16.8,16.8,0,0,1,31.34,8.44v55.39l-4.95.05h-3.71a3.25,3.25,0,0,0-3.16,3.29,3.51,3.51,0,0,0,3.44,3.15h3.32l5.06-.06v85.31A27.5,27.5,0,0,1,365,267.21Zm-40.65-99.33-35,60.62a15.42,15.42,0,0,0,11.08,23c19.89,2.85,41.36,4.76,63.8,5.7h0a17.5,17.5,0,0,0,18.32-17.58V164.27a13.4,13.4,0,0,1-11.82-12.9A13.26,13.26,0,0,1,382.53,138V92.49a6.8,6.8,0,0,0-12.68-3.44L340.5,139.88c1.88-.14,3.79-.28,5.7-.4a13.21,13.21,0,1,1,1.72,26.37C340.73,166.32,333,167,324.34,167.88Z"/></svg>
