<svg id="LOGO" xmlns="http://www.w3.org/2000/svg" viewBox="0 0 1219.62 1452.38"><defs><style>.cls-1{fill:#fff;}</style></defs><path class="cls-1" d="M313.64,791.39H257.8a14.31,14.31,0,1,0,0,28.61h55.84a14.31,14.31,0,1,0,0-28.61Z"/><path class="cls-1" d="M425.32,791.39H369.48a14.31,14.31,0,1,0,0,28.61h55.84a14.31,14.31,0,1,0,0-28.61Z"/><path class="cls-1" d="M704.53,820h55.84a14.31,14.31,0,1,0,0-28.61H704.53a14.31,14.31,0,1,0,0,28.61Z"/><path class="cls-1" d="M537,791.39H481.16a14.31,14.31,0,1,0,0,28.61H537a14.31,14.31,0,1,0,0-28.61Z"/><path class="cls-1" d="M927.89,820h55.85a14.31,14.31,0,1,0,0-28.61H927.89a14.31,14.31,0,1,0,0,28.61Z"/><path class="cls-1" d="M816.21,820h55.84a14.31,14.31,0,1,0,0-28.61H816.21a14.31,14.31,0,1,0,0,28.61Z"/><path class="cls-1" d="M1085.32,800.46l-.21-.75L799.67,312.17c54.29-15.37,83.16-36.74,83.62-62l0-.59c0-12.79-7-24.61-20.94-35.13A13.69,13.69,0,0,0,843.43,217a13.24,13.24,0,0,0,2.51,18.69c6.51,4.91,10.16,9.72,10.34,13.61v.32c0,10.07-21.83,25.87-70.53,38.79l-53-90.47a13.27,13.27,0,0,0-3.46-25.41c-3.64-.51-7.37-1-11.11-1.4L717,171,620.87,6.76a13.83,13.83,0,0,0-23.77,0L500.9,171.09a13.42,13.42,0,0,0-9.77,14.4,9,9,0,0,0,.38,1.64L432.22,288.4c-48.33-12.84-70.21-28.5-70.53-38.57v-.23c0-5.72,7.67-13.36,20.52-20.42a13.28,13.28,0,0,0,6.42-8,13,13,0,0,0-1.19-10.13,13.65,13.65,0,0,0-18.37-5.17c-22.51,12.37-34.07,26.84-34.39,43l0,.67c0,25.48,28.89,47.07,83.64,62.57l-285.14,487-.51,1.25a13.3,13.3,0,0,0,6.22,17.65l464,229.47a13.94,13.94,0,0,0,12.3,0l464-229.47A13.29,13.29,0,0,0,1085.32,800.46ZM623.49,826.54a6.6,6.6,0,0,1,6.64-6.54h18.13c7.19,0,13.35-4.84,14.66-11.5a14.23,14.23,0,0,0-3-11.91,14.54,14.54,0,0,0-11.19-5.2H630a6.47,6.47,0,0,1-6.5-6.41V346.37a12.12,12.12,0,0,1,11.88-12.13C678.51,333,720.58,328.76,757,322a19.31,19.31,0,0,1,20.2,9.08L1018.82,743.7a59.64,59.64,0,0,1,5.69,48,60.62,60.62,0,0,1-31.51,37L642.74,1001.93a13.39,13.39,0,0,1-12.94-.56,13,13,0,0,1-6.31-11.16Zm14.87-634.87a13.33,13.33,0,0,0,.42-26.65c-5-.15-10.15-.23-15.29-.3v-84A3.19,3.19,0,0,1,626,77.57a3.23,3.23,0,0,1,3.75,1.54l51.82,88.5a13.3,13.3,0,0,0,.34,26.51c5.41.44,10.75,1,16.06,1.51L739.7,267a22.49,22.49,0,0,1-16.44,33.65c-23.92,3.28-49.68,5.49-76.57,6.55A22.4,22.4,0,0,1,630.34,301a21.6,21.6,0,0,1-6.85-15.8V191.37c4.86.07,9.69.15,14.44.3Zm-58.18-13.43c.1,7.06,6.05,12.82,13.73,13.11h.57v92.3a23.14,23.14,0,0,1-7.29,17,24,24,0,0,1-17.49,6.47c-27.24-1.11-53.31-3.41-77.48-6.83a20.72,20.72,0,0,1-15.94-11.47,20.43,20.43,0,0,1,.72-19.65l43-73.47c11-1.13,20.8-2,29.92-2.56a13.46,13.46,0,0,0,9.28-4.51,13.07,13.07,0,0,0,3.32-9.64,13.45,13.45,0,0,0-14.36-12.43c-3.9.25-7.76.55-11.6.86l37.91-64.75a10.75,10.75,0,0,1,20,5.33v56.73h-1A13.44,13.44,0,0,0,580.18,178.24Zm-1.56,624.64a14.22,14.22,0,0,0,3,11.91,14.56,14.56,0,0,0,11.2,5.21h1.63V955.45a34.24,34.24,0,0,1-16.63,29.41,35.24,35.24,0,0,1-34.12,1.48l-337.67-167a14.15,14.15,0,0,0,7.09-22.74,14.54,14.54,0,0,0-11.19-5.2H179.25a30.11,30.11,0,0,1,3.71-20L443.18,326.9a12.24,12.24,0,0,1,12.94-5.83c37.16,7.23,80.38,11.77,125,13.12a13.65,13.65,0,0,1,13.37,13.65V791.39h-1.21C586.09,791.39,579.92,796.22,578.62,802.88Z"/><path class="cls-1" d="M768.45,206.49h0A356.16,356.16,0,0,1,809.86,218a13.84,13.84,0,0,0,4.52.76,13.51,13.51,0,0,0,12.73-8.87,13.05,13.05,0,0,0-.53-10.18,13.4,13.4,0,0,0-7.68-6.83,389.34,389.34,0,0,0-44.66-12.38,13.68,13.68,0,0,0-16,10.14A13.34,13.34,0,0,0,768.45,206.49Z"/><path class="cls-1" d="M417,214.41a14,14,0,0,0,3.91-.57A429.56,429.56,0,0,1,463,203.75a13.28,13.28,0,0,0,4.94-24.17,13.52,13.52,0,0,0-10.1-2c-16.23,3.12-31.28,6.74-44.74,10.75A13.3,13.3,0,0,0,417,214.41Z"/><path class="cls-1" d="M48.37,1182.94,45.74,1198a6.29,6.29,0,0,0,6.21,7.37l26.27,0a6.29,6.29,0,0,1,6.21,7.37l-2.85,16.33a6.29,6.29,0,0,1-6.19,5.21l-30.7,0a6.28,6.28,0,0,0-6.19,5.21l-2,11.62a6.3,6.3,0,0,0,6.21,7.38l44.87-.08a6.29,6.29,0,0,1,6.21,7.37l-2.85,16.32a6.29,6.29,0,0,1-6.18,5.21l-78.43.13a6.28,6.28,0,0,1-6.2-7.37l22-125.79a6.29,6.29,0,0,1,6.17-5.21l78.46-.34a6.28,6.28,0,0,1,6.22,7.37l-2.84,16.31a6.3,6.3,0,0,1-6.19,5.21l-49.31.08A6.3,6.3,0,0,0,48.37,1182.94ZM192.1,1264.7,189,1282.55a5.52,5.52,0,0,1-5.44,4.57l-63.41.12a5.54,5.54,0,0,1-5.46-6.48L136.81,1154a5.53,5.53,0,0,1,5.14-4.57l20.81-1.16a5.53,5.53,0,0,1,5.75,6.47l-16.94,97.1a5.52,5.52,0,0,0,5.45,6.47l29.63,0A5.53,5.53,0,0,1,192.1,1264.7Zm67.24-82.62-2.81,16.07a5.79,5.79,0,0,0,5.72,6.79l27.45,0a5.81,5.81,0,0,1,5.72,6.8l-3,17.31a5.79,5.79,0,0,1-5.7,4.8l-31.54.06a5.8,5.8,0,0,0-5.7,4.8l-2.2,12.61a5.81,5.81,0,0,0,5.72,6.8l46-.08a5.79,5.79,0,0,1,5.72,6.79l-3,17.31a5.8,5.8,0,0,1-5.7,4.8l-79.42.14a5.8,5.8,0,0,1-5.72-6.8L233,1153.46a5.79,5.79,0,0,1,5.69-4.8l79.46-.36a5.79,5.79,0,0,1,5.73,6.8l-3,17.3a5.81,5.81,0,0,1-5.71,4.8l-50.13.08A5.79,5.79,0,0,0,259.34,1182.08Zm70.2,37.53.69-4c7.89-45.21,41.23-68.48,73.34-68.54,21.15,0,39,11.33,45.48,31.51a5,5,0,0,1-3.12,6.05l-21.4,7.85a4.82,4.82,0,0,1-6.09-2.34c-3.65-8.42-11.54-12.7-20.17-12.69-14.52,0-31.79,9.94-36.7,38.1l-.69,4c-4.92,28.16,8.9,38,23.42,38,9.3,0,19.68-5.12,26.07-15a5.1,5.1,0,0,1,6.25-2.13l17.54,7.4a5,5,0,0,1,2.4,7.11c-13.72,22.34-35.68,32.93-57.56,33C346.89,1288,321.65,1264.82,329.54,1219.61Zm220.86-41.68-23.35,0a5.36,5.36,0,0,0-5.27,4.45L504.4,1282a5.37,5.37,0,0,1-5.28,4.44l-20.95,0a5.36,5.36,0,0,1-5.29-6.28l16.73-95.87a5.36,5.36,0,0,0-5.29-6.28l-19.06,0a5.36,5.36,0,0,1-5.29-6.29l3.34-19.16a5.35,5.35,0,0,1,5.28-4.44l85.14-.15a5.36,5.36,0,0,1,5.29,6.29l-3.34,19.16A5.36,5.36,0,0,1,550.4,1177.93Zm76,108.27a6,6,0,0,1-5.61-3.8l-14.26-35.69-12,0-6,34.55a6,6,0,0,1-5.93,5l-19.34,0a6,6,0,0,1-6-7.07l21.87-125.34a6.09,6.09,0,0,1,5.63-5c14.47-.88,28.42-1.58,43-2.26,23.7,0,46.79,16.46,40.88,50.3-3,16.94-12,30.88-24.56,39.63a6.12,6.12,0,0,0-2.35,7.3l13.64,34a6,6,0,0,1-5.59,8.28Zm-27-67.14,14,0c9.43,0,20.87-7.2,23.15-20.29s-2.86-21.49-16.37-21.46c-3.19.16-5.92.22-8.8.38a6.06,6.06,0,0,0-5.63,5Zm105,67-21.27,0a5.2,5.2,0,0,1-5.14-6.09l22.28-127.65a5.21,5.21,0,0,1,4.88-4.31l21.44-1a5.21,5.21,0,0,1,5.38,6.09l-22.45,128.64A5.22,5.22,0,0,1,704.33,1286Zm37.09-67.29.7-4c7.88-45.21,41.23-68.48,73.34-68.54,21.08,0,38.87,11.25,45.4,31.3a5.2,5.2,0,0,1-3.26,6.35l-21,7.69a5.05,5.05,0,0,1-6.38-2.48c-3.69-8.28-11.52-12.49-20.07-12.47-14.53,0-31.79,9.94-36.7,38.1l-.7,4c-4.91,28.16,8.9,38,23.43,38,9.27,0,19.64-5.11,26-14.93a5.17,5.17,0,0,1,6.33-2.15l17.22,7.27a5.22,5.22,0,0,1,2.52,7.45c-13.73,22.19-35.6,32.7-57.41,32.74C758.78,1287.11,733.53,1263.94,741.42,1218.73ZM989.18,1260l-38.45.07a6.68,6.68,0,0,0-6.05,3.85l-6.94,14.8a6.68,6.68,0,0,1-6,3.85l-16.84,0a6.7,6.7,0,0,1-6-9.65l60.77-124a6.72,6.72,0,0,1,5.62-3.74l29-1.7a6.71,6.71,0,0,1,7,5.77l17.35,125.54a6.7,6.7,0,0,1-6.62,7.61l-18.22,0a6.69,6.69,0,0,1-6.66-5.89l-1.29-10.66A6.7,6.7,0,0,0,989.18,1260Zm1.79-35.39-2.92-24.6a6.7,6.7,0,0,0-12.73-2l-11.4,24.63a6.69,6.69,0,0,0,6.09,9.51l14.32,0A6.7,6.7,0,0,0,991,1224.65Zm85,57.68-19.78,0a5.94,5.94,0,0,1-5.86-7l22-126.21a5.94,5.94,0,0,1,5.56-4.91l20-1a5.94,5.94,0,0,1,6.13,7l-22.19,127.13A5.94,5.94,0,0,1,1076,1282.33Zm101.67-.23a8,8,0,0,1-7.41-5l-13.76-34.46-12,0-5.75,32.94a8,8,0,0,1-7.83,6.59l-15.41,0a8,8,0,0,1-7.87-9.33l21.22-121.56a8,8,0,0,1,7.42-6.6c13.93-.83,27.42-1.5,41.48-2.16,23.69,0,46.79,16.46,40.88,50.3-2.9,16.64-11.71,30.38-23.91,39.16a7.75,7.75,0,0,0-2.44,9.19l12,29.93a8,8,0,0,1-7.38,10.93ZM1149.37,1215l14,0c9.44,0,20.88-7.2,23.16-20.29s-2.87-21.49-16.38-21.47c-2.62.14-4.93.2-7.28.31a8,8,0,0,0-7.42,6.59Z"/><path class="cls-1" d="M87.69,1426.59a5.44,5.44,0,0,1,4-5.82l6.9-1.78c-.66,11.44,7.21,22.42,23.44,22.39,17.35,0,27.94-9.75,30.09-22.05,5.31-30.41-58.52-21.46-51.9-59.43,3-17.26,21.55-30.44,42-30.48,17.72,0,29.91,10.13,31.86,23.85a5.47,5.47,0,0,1-3.94,6.1l-6.53,1.72c.37-13.59-10.32-21.12-22.78-21.1-16.24,0-27.24,10.83-28.64,20.11-4.64,29.12,58.3,20.17,51.41,59.64-2.93,16.83-17.7,32.6-43.27,32.64C99.74,1452.42,89,1439.61,87.69,1426.59Zm239-85.77-29.19,0a3.37,3.37,0,0,0-3.32,2.8l-18.79,107.65-11.12,0,18.58-106.48a3.38,3.38,0,0,0-3.33-4l-28,0,1.8-10.36,75.19-.13Zm71.83,64.37,13.68-74.64,10.79-.67-13.51,74.86c-3.84,22,7.69,36.22,26.82,36.19,20,0,35.41-14.3,39.25-36.31l13-74.64h10.9L486.63,1405c-5,28.48-26.19,46.84-52.22,46.88C409.05,1452,393.34,1433.67,398.55,1405.19Zm192.31-69.44a5.84,5.84,0,0,1,5.35-4.78c9.88-.62,19-.83,29.25-1,24.69,0,50.44,15.44,42.35,61.81-9.37,53.72-48.28,60-65.85,60.07l-24.51,0a5.76,5.76,0,0,1-5.68-6.74ZM605.13,1441c25.14,0,46.45-13.88,52.59-49,6.17-35.38-11.54-51.09-33.34-51-6.45,0-11.66,0-17.19.24a5.76,5.76,0,0,0-5.48,4.76l-15.42,88.38a5.75,5.75,0,0,0,5.67,6.74ZM761,1451.62l-11.12,0,20.43-117.07a4.79,4.79,0,0,1,4.44-4l7.45-.44Zm98.28-58.69.68-3.88c7-40.13,35.53-59.58,61.1-59.63,25.36,0,47.33,19.33,40.32,59.46l-.67,3.88c-7,40.12-35.75,59.58-61.1,59.62C874.07,1452.42,852.32,1433.05,859.32,1392.93Zm90.31-.15.68-3.88c6.1-35-11.62-49.37-31-49.34s-42.11,14.52-48.21,49.48l-.68,3.88c-6.06,34.73,11.66,49.15,30.78,49.11C920.8,1442,943.57,1427.51,949.63,1392.78Zm91.71,29,11-2.83c-.66,11.44,7.21,22.42,23.44,22.4,17.36,0,27.94-9.76,30.09-22.06,5.3-30.41-58.52-21.46-51.89-59.43,3-17.25,21.55-30.44,42-30.48,19.8,0,32.7,12.67,32.1,28.84l-10.72,2.83c.37-13.58-10.32-21.12-22.78-21.1-16.23,0-27.24,10.83-28.63,20.11-4.64,29.13,58.29,20.17,51.4,59.65-2.94,16.82-17.69,32.59-43.27,32.63C1050.91,1452.42,1040.16,1436.28,1041.34,1421.82Z"/></svg>